<?xml version="1.0" encoding="UTF-8" standalone="no"?>
<!-- Created with Inkscape (http://www.inkscape.org/) -->

<svg
   version="1.1"
   id="svg1"
   width="512"
   height="512"
   viewBox="0 0 512 512"
   sodipodi:docname="united-kingdom.png"
   xmlns:inkscape="http://www.inkscape.org/namespaces/inkscape"
   xmlns:sodipodi="http://sodipodi.sourceforge.net/DTD/sodipodi-0.dtd"
   xmlns="http://www.w3.org/2000/svg"
   xmlns:svg="http://www.w3.org/2000/svg">
  <defs
     id="defs1" />
  <sodipodi:namedview
     id="namedview1"
     pagecolor="#505050"
     bordercolor="#eeeeee"
     borderopacity="1"
     inkscape:showpageshadow="0"
     inkscape:pageopacity="0"
     inkscape:pagecheckerboard="0"
     inkscape:deskcolor="#505050" />
  <circle
     style="display:inline;fill:#ffffff;fill-opacity:1;fill-rule:evenodd;stroke:none;stroke-width:20.0187;stroke-linecap:round;stroke-linejoin:round;stroke-opacity:1"
     id="path215"
     cx="256"
     cy="256"
     r="255.25"
     inkscape:label="bg_white" />
  <g
     id="g215"
     inkscape:label="blue"
     style="display:inline;fill:#0052b4;fill-opacity:1">
    <path
       id="path214"
       style="display:inline;fill:#0052b4;fill-opacity:1"
       d="M 323,370.50781 V 436.25391 502 h 1.0957 1.09571 l 5.65429,-1.62891 5.6543,-1.6289 11.23438,-4.32813 11.23632,-4.32617 12.9043,-6.5625 12.9043,-6.5625 11.89648,-7.86914 11.89453,-7.87109 1.16992,-1.41016 1.16993,-1.41016 -43.95508,-43.94726 z" />
    <path
       d="m 189,370.50781 -43.95508,43.94727 -43.95508,43.94726 1.16993,1.41016 1.16992,1.41016 11.89453,7.87109 11.89648,7.86914 12.69922,6.45898 12.69922,6.45704 5.44141,2.20312 5.43945,2.20313 11,3.82226 11,3.82422 1.75,0.0332 L 189,502 v -65.74609 z"
       style="display:inline;fill:#0052b4;fill-opacity:1"
       id="path212" />
    <path
       id="path209"
       style="display:inline;fill:#0052b4;fill-opacity:1"
       d="m 370.50781,323 43.94727,43.95508 43.94726,43.95508 1.41016,-1.16993 1.41016,-1.16992 7.87109,-11.89453 7.86914,-11.89648 6.5625,-12.9043 6.5625,-12.9043 4.32617,-11.23632 4.32813,-11.23438 1.6289,-5.6543 L 502,325.19141 V 324.0957 323 h -65.74609 z" />
    <path
       d="m 10.681641,322.98633 -0.480469,0.47851 -0.4804689,0.48047 1.7578129,6.27735 1.757812,6.27734 4.248047,11 4.246094,11 5.707031,11.37695 5.707031,11.37891 5.38086,8.69922 5.380859,8.69726 4.650391,6.31641 4.648437,6.31641 L 97.107422,367.39258 141.00977,323.5 75.845703,323.24219 Z"
       style="display:inline;fill:#0052b4;fill-opacity:1"
       id="path205" />
    <path
       id="path204"
       style="display:inline;fill:#0052b4;fill-opacity:1"
       d="M 458.40234,101.08984 414.45508,145.04492 370.50781,189 H 436.25391 502 v -1.0957 -1.09571 l -1.62891,-5.65429 -1.6289,-5.6543 -4.32813,-11.23438 -4.32617,-11.23632 -6.5625,-12.9043 -6.5625,-12.9043 -7.86914,-11.89648 -7.87109,-11.89453 -1.41016,-1.16992 z" />
    <path
       d="m 53.597656,101.08984 -1.410156,1.16993 -1.410156,1.16992 -7.871094,11.89453 -7.869141,11.89648 -6.5625,12.9043 -6.5625,12.9043 -4.326172,11.23632 L 13.257813,175.5 11.628906,181.1543 10,186.80859 V 187.9043 189 H 75.746094 141.49219 L 97.544922,145.04492 Z"
       style="display:inline;fill:#0052b4;fill-opacity:1"
       id="path202" />
    <path
       d="M 323,10 V 75.746094 141.49219 L 366.95508,97.544922 410.91016,53.597656 409.74023,52.1875 408.57031,50.777344 396.67578,42.90625 384.7793,35.037109 371.875,28.474609 358.9707,21.912109 347.73437,17.585937 336.5,13.257813 330.8457,11.628906 325.19141,10 h -1.09571 z"
       style="display:inline;fill:#0052b4;fill-opacity:1"
       id="path199" />
    <path
       d="m 188.05469,9.7207031 -6.27735,1.7578129 -6.27734,1.757812 -11,4.248047 -11,4.246094 -11.37695,5.707031 -11.37891,5.707031 -8.69922,5.38086 -8.69726,5.380859 -6.31641,4.650391 -6.31641,4.648437 43.89258,43.902344 43.89258,43.902348 0.25781,-65.164067 0.25586,-65.164062 -0.47851,-0.480469 z"
       style="display:inline;fill:#0052b4;fill-opacity:1"
       id="path198" />
  </g>
  <g
     id="g214"
     inkscape:label="red"
     style="display:inline;fill:#d80027;fill-opacity:1">
    <path
       d="m 189,323.50195 -56.75,56.81446 -56.75,56.8125 7.5,6.91601 7.5,6.91406 0.496094,0.0215 L 91.492187,451 140.24609,402.25391 189,353.50781 v -15.00195 z"
       style="display:inline;fill:#d80027;fill-opacity:1"
       id="path211" />
    <path
       id="path207"
       style="display:inline;fill:#d80027;fill-opacity:1"
       d="M 323.50586,323 380,379.5 436.49414,436 h 0.63086 0.62891 l 6.78711,-7.58203 6.7871,-7.58203 L 402.41797,371.91797 353.50781,323 h -15 z" />
    <path
       d="m 74.246094,76 -6.78711,7.582031 -6.787109,7.582031 L 109.58203,140.08203 158.49219,189 h 15 15.00195 L 132,132.5 75.505859,76 H 74.875 Z"
       style="display:inline;fill:#d80027;fill-opacity:1"
       id="path201" />
    <path
       d="M 420.83594,60.671875 371.91797,109.58203 323,158.49219 v 15 15.00195 L 379.5,132 436,75.505859 V 74.875 74.246094 l -7.58203,-6.78711 z"
       style="display:inline;fill:#d80027;fill-opacity:1"
       id="path200" />
    <path
       d="m 235.5,1.0488281 -6,0.7265625 -6,0.7246094 -0.25391,110.24609 -0.2539,110.2461 -110.2461,0.2539 L 2.5,223.5 l -0.7363281,6 -0.7363282,6 v 20.5 20.5 l 0.7363282,6 0.7363281,6 110.25,0.25391 110.25,0.2539 V 399.03516 509.0625 l 1.40625,0.53906 1.40625,0.54102 14.34375,0.6914 14.34375,0.69141 10.5,-0.34961 10.5,-0.34961 6.5,-0.66406 6.5,-0.66211 0.25391,-110.24609 0.2539,-110.2461 110.2461,-0.2539 L 509.5,288.5 l 0.73633,-6 0.73633,-6 V 256 235.5 l -0.73633,-6 -0.73633,-6 -110.24609,-0.25391 -110.2461,-0.2539 -0.2539,-110.2461 L 288.5,2.5 l -6,-0.7246094 -6,-0.7265625 H 256 Z"
       style="display:inline;fill:#d80027;fill-opacity:1"
       id="path197" />
  </g>
</svg>
