<?xml version="1.0" encoding="UTF-8" standalone="no"?>
<!-- Created with Inkscape (http://www.inkscape.org/) -->

<svg
   version="1.1"
   id="svg1"
   width="1024"
   height="1024"
   viewBox="0 0 1024 1024"
   xmlns="http://www.w3.org/2000/svg"
   xmlns:svg="http://www.w3.org/2000/svg">
  <defs
     id="defs1" />
  <g
     id="g77"
     transform="matrix(1.317559,0,0,1.317559,-162.67594,-174.68576)">
    <path
       style="fill:#aceede"
       d="m 388.64062,514.53125 v 290.00781 c 10e-6,27.62608 19.6294,49.7562 45.20508,53.07032 h 231.44922 c 4.93598,0 9.68766,-0.75123 14.18164,-2.10157 2.9676,-0.97771 5.82192,-2.20799 8.52539,-3.6914 0.14815,-0.0778 0.29023,-0.16484 0.4375,-0.24414 11.45368,-6.43227 20.22467,-17.19987 24.31836,-30.29688 0.13328,-0.45302 0.28272,-0.89692 0.4043,-1.35547 0.82661,-2.9071 1.41712,-5.92156 1.76367,-9.02539 0.13687,-1.57684 0.23047,-3.16835 0.23047,-4.78711 V 514.53125 Z m 48.23243,21.98828 h 37.74023 a 10.001,10.001 0 0 1 10,10 v 26.39649 a 10.001,10.001 0 0 1 -10,10 h -37.74023 a 10.001,10.001 0 0 1 -10,-10 v -26.39649 a 10.001,10.001 0 0 1 10,-10 z m 10,20 v 6.39649 h 17.74023 v -6.39649 z"
       id="path74" />
    <path
       style="fill:#aceede"
       d="m 437.88867,184.4082 c -27.52141,1.38187 -49.24805,24.34973 -49.24805,53.41407 V 494.53125 H 715.15625 V 235.91016 c 0,-1.44504 -0.0957,-2.86155 -0.20508,-4.27344 -2.71693,-25.02213 -21.70098,-44.36774 -45.78711,-47.03125 -1.28053,-0.0995 -2.56256,-0.19727 -3.86914,-0.19727 z m -0.22851,155.44922 h 35.82422 a 10.001,10.001 0 0 1 10,10 v 114.45899 a 10.001,10.001 0 0 1 -10,10 h -35.82422 a 10.001,10.001 0 0 1 -10,-10 V 349.85742 a 10.001,10.001 0 0 1 10,-10 z m 10,20 v 94.45899 h 15.82422 v -94.45899 z"
       id="path69" />
    <path
       style="fill:#66bab7"
       d="m 308.81836,514.53125 v 291.57617 c 0,28.84808 22.21257,51.50196 49.86133,51.50196 h 32.1875 c -13.6807,-13.41745 -22.22657,-32.25281 -22.22657,-53.07032 V 514.53125 Z"
       id="path73" />
    <path
       style="fill:#66bab7"
       d="m 358.67969,184.4082 c -27.64876,0 -49.86133,22.65389 -49.86133,51.50196 v 258.62109 h 59.82226 V 237.82227 c 10e-6,-21.00066 8.70301,-39.97579 22.59571,-53.41407 z"
       id="path68" />
    <path
       style="fill:#012863"
       d="m 440.49182,164.275 c -0.86679,0 -1.70718,0.10163 -2.5664,0.13281 h -79.2461 c -38.67706,0 -69.86132,32.20619 -69.86132,71.50195 v 570.19727 c 0,39.29578 31.18426,71.50195 69.86132,71.50195 h 73.8418 c 2.61973,0.29669 5.27245,0.47657 7.9707,0.47657 h 222.9668 c 7.64995,0 15.00556,-1.24768 21.91211,-3.51368 26.81484,-8.24071 46.78327,-32.51588 49.45508,-61.76953 0.29872,-2.71748 0.48633,-5.46772 0.48633,-8.26367 v -566.7168 c 0,-2.73696 -0.17453,-5.4318 -0.46094,-8.09375 -2.90437,-34.45045 -29.77527,-62.10672 -63.66211,-65.01562 -2.54047,-0.27867 -5.11652,-0.4375 -7.73047,-0.4375 z m -81.8125,20.13281 h 32.55664 c -13.89271,13.43829 -22.5957,32.41338 -22.5957,53.41406 V 494.53086 H 308.818 v -258.6211 c 0,-28.8481 22.21253,-51.50195 49.86132,-51.50195 z m 79.20899,0 h 227.40625 c 1.30658,0 2.58861,0.0978 3.86914,0.19727 24.08615,2.66351 43.07018,22.0091 45.78711,47.03125 0.10936,1.41189 0.20508,2.82839 0.20508,4.27343 v 258.6211 H 388.64026 V 237.82187 c 0,-29.06436 21.72661,-52.03219 49.24805,-53.41406 z m -0.22852,155.44922 a 10.001,10.001 0 0 0 -10,10 v 114.45898 a 10.001,10.001 0 0 0 10,10 h 35.82422 a 10.001,10.001 0 0 0 10,-10 V 349.85703 a 10.001,10.001 0 0 0 -10,-10 z m 10,20 h 15.82422 v 94.45898 H 447.65979 Z M 308.818,514.53086 h 59.82226 v 290.00781 c 0,20.81753 8.54585,39.65285 22.22656,53.07031 h -32.1875 c -27.64879,0 -49.86132,-22.65384 -49.86132,-51.50195 z m 79.82226,0 h 326.51563 v 291.57617 c 0,1.61876 -0.0936,3.21027 -0.23047,4.78711 -0.34655,3.10383 -0.93706,6.11829 -1.76367,9.02539 -0.12158,0.45855 -0.27102,0.90245 -0.4043,1.35547 -4.0937,13.09702 -12.86467,23.8646 -24.31836,30.29687 -0.14727,0.0793 -0.28935,0.16633 -0.4375,0.24414 -2.70348,1.48342 -5.55779,2.7137 -8.52539,3.69141 -4.49399,1.35034 -9.24566,2.10156 -14.18164,2.10156 H 433.84534 c -25.57571,-3.31412 -45.20508,-25.4442 -45.20508,-53.07031 z m 48.23242,21.98828 a 10.001,10.001 0 0 0 -10,10 v 26.39648 a 10.001,10.001 0 0 0 10,10 h 37.74024 a 10.001,10.001 0 0 0 10,-10 v -26.39648 a 10.001,10.001 0 0 0 -10,-10 z m 10,20 h 17.74024 v 6.39648 h -17.74024 z"
       id="rect4-4" />
  </g>
</svg>
