<?xml version="1.0" encoding="UTF-8" standalone="no"?>
<!-- Created with Inkscape (http://www.inkscape.org/) -->

<svg
   version="1.1"
   id="svg1"
   width="1024"
   height="1024"
   viewBox="0 0 1024 1024"
   xmlns="http://www.w3.org/2000/svg"
   xmlns:svg="http://www.w3.org/2000/svg"
   >
  <g
     id="g77"
     transform="matrix(1.317559,0,0,1.317559,-162.67594,-174.68576)"
     class="ionicon">
    <path
       style="fill:inherit"
       d="m 388.64062,514.53125 v 290.00781 c 10e-6,27.62608 19.6294,49.7562 45.20508,53.07032 h 231.44922 c 4.93598,0 9.68766,-0.75123 14.18164,-2.10157 2.9676,-0.97771 5.82192,-2.20799 8.52539,-3.6914 0.14815,-0.0778 0.29023,-0.16484 0.4375,-0.24414 11.45368,-6.43227 20.22467,-17.19987 24.31836,-30.29688 0.13328,-0.45302 0.28272,-0.89692 0.4043,-1.35547 0.82661,-2.9071 1.41712,-5.92156 1.76367,-9.02539 0.13687,-1.57684 0.23047,-3.16835 0.23047,-4.78711 V 514.53125 Z m 48.23243,21.98828 h 37.74023 a 10.001,10.001 0 0 1 10,10 v 26.39649 a 10.001,10.001 0 0 1 -10,10 h -37.74023 a 10.001,10.001 0 0 1 -10,-10 v -26.39649 a 10.001,10.001 0 0 1 10,-10 z m 10,20 v 6.39649 h 17.74023 v -6.39649 z"
       id="path74" />
    <path
       style="fill:inherit"
       d="m 437.88867,184.4082 c -27.52141,1.38187 -49.24805,24.34973 -49.24805,53.41407 V 494.53125 H 715.15625 V 235.91016 c 0,-1.44504 -0.0957,-2.86155 -0.20508,-4.27344 -2.71693,-25.02213 -21.70098,-44.36774 -45.78711,-47.03125 -1.28053,-0.0995 -2.56256,-0.19727 -3.86914,-0.19727 z m -0.22851,155.44922 h 35.82422 a 10.001,10.001 0 0 1 10,10 v 114.45899 a 10.001,10.001 0 0 1 -10,10 h -35.82422 a 10.001,10.001 0 0 1 -10,-10 V 349.85742 a 10.001,10.001 0 0 1 10,-10 z m 10,20 v 94.45899 h 15.82422 v -94.45899 z"
       id="path69" />
    <path
       style="fill:inherit"
       d="m 308.81836,514.53125 v 291.57617 c 0,28.84808 22.21257,51.50196 49.86133,51.50196 h 32.1875 c -13.6807,-13.41745 -22.22657,-32.25281 -22.22657,-53.07032 V 514.53125 Z"
       id="path73" />
    <path
       style="fill:inherit"
       d="m 358.67969,184.4082 c -27.64876,0 -49.86133,22.65389 -49.86133,51.50196 v 258.62109 h 59.82226 V 237.82227 c 10e-6,-21.00066 8.70301,-39.97579 22.59571,-53.41407 z"
       id="path68" />
  </g>
</svg>
